<svg xmlns="http://www.w3.org/2000/svg" version="1.1" xmlns:xlink="http://www.w3.org/1999/xlink" viewBox="0 0 200 200" width="200" height="200"><metadata><rdf:RDF xmlns:rdf="http://www.w3.org/1999/02/22-rdf-syntax-ns#" xmlns:dc="http://purl.org/dc/elements/1.1/"><rdf:Description><dc:creator>RealFaviconGenerator</dc:creator><dc:source>https://realfavicongenerator.net</dc:source></rdf:Description></rdf:RDF></metadata><rect width="200" height="200" fill="url('#gradient')"></rect><defs><linearGradient id="gradient" gradientTransform="rotate(45 0.5 0.5)"><stop offset="0%" stop-color="#ffffff"></stop><stop offset="100%" stop-color="#e1f0e7"></stop></linearGradient></defs><g><g fill="#183242" transform="matrix(4.495609756097561,0,0,4.495609756097561,5.730264772787322,130.9967587847826)" stroke="#be8c9e" stroke-width="0.2"><path d="M0.95-10.57L4.03-10.57L4.14-9.33Q5.26-10.76 7.16-10.76L7.16-10.76Q9.16-10.76 9.86-9.17L9.86-9.17Q10.94-10.76 12.97-10.76L12.97-10.76Q16.18-10.76 16.27-6.88L16.27-6.88L16.27 0L12.97 0L12.97-6.67Q12.97-7.48 12.70-7.85Q12.42-8.22 11.70-8.22L11.70-8.22Q10.72-8.22 10.24-7.35L10.24-7.35L10.25-7.22L10.25 0L6.95 0L6.95-6.65Q6.95-7.48 6.69-7.85Q6.43-8.22 5.68-8.22L5.68-8.22Q4.74-8.22 4.24-7.35L4.24-7.35L4.24 0L0.95 0L0.95-10.57ZM21.62-10.57L21.62 0L18.32 0L18.32-10.57L21.62-10.57ZM18.13-13.29L18.13-13.29Q18.13-13.99 18.63-14.44Q19.14-14.89 19.95-14.89Q20.76-14.89 21.27-14.44Q21.78-13.99 21.78-13.29Q21.78-12.59 21.27-12.14Q20.76-11.69 19.95-11.69Q19.14-11.69 18.63-12.14Q18.13-12.59 18.13-13.29ZM29.64-14.22L24.78 1.22L22.44 1.22L27.29-14.22L29.64-14.22ZM37.22 0L34.91-3.94L33.98-3.01L33.98 0L30.69 0L30.69-15.01L33.98-15.01L33.98-7.04L34.32-7.48L36.80-10.57L40.74-10.57L37.04-6.22L40.99 0L37.22 0Z"></path></g></g></svg>